{"title":"Sons Of Anarchy S04E05 HDTV XViD AC3 DTRG","uid":6722277,"size":707493934,"categoryP":"video","categoryS":"tv_shows","magnet":"?xt=urn:btih:087318875404ff84dad98a28e484aa95a2a44a6d&amp;dn=Sons+Of+Anarchy+S04E05+HDTV+XViD+AC3+DTRG&amp;tr=udp%3A%2F%2Ftracker.openbittorrent.com%3A80&amp;tr=udp%3A%2F%2Fopen.demonii.com%3A1337&amp;tr=udp%3A%2F%2Ftracker.coppersurfer.tk%3A6969&amp;tr=udp%3A%2F%2Fexodus.desync.com%3A6969","seeders":2,"leechers":1,"uploader":"SAFCukO09","files":2,"time":1317828512,"description":"Format : AVI\nFormat/Info : Audio Video Interleave\nFile size : 675 MiB\nDuration : 43mn 21s\nOverall bit rate : 2 176 Kbps\nWriting application : VirtualDubMod 1.5.10.2 (build 2540/release)\nWriting library : VirtualDubMod build 2540/release\n\nVideo\nID : 0\nFormat : MPEG-4 Visual\nFormat profile : Advanced Simple@L5\nFormat settings, BVOP : 2\nFormat settings, QPel : No\nFormat settings, GMC : No warppoints\nFormat settings, Matrix : Default (H.263)\nMuxing mode : Packed bitstream\nCodec ID : XVID\nCodec ID/Hint : XviD\nDuration : 43mn 21s\nBit rate : 1 783 Kbps\nWidth : 624 pixels\nHeight : 352 pixels\nDisplay aspect ratio : 16:9\nFrame rate : 23.976 fps\nColor space : YUV\nChroma subsampling : 4:2:0\nBit depth : 8 bits\nScan type : Progressive\nCompression mode : Lossy\nBits/(Pixel*Frame) : 0.338\nStream size : 553 MiB (82%)\nWriting library : XviD 64\n\nAudio\nID : 1\nFormat : AC-3\nFormat/Info : Audio Coding 3\nMode extension : CM (complete main)\nCodec ID : 2000\nDuration : 43mn 21s\nBit rate mode : Constant\nBit rate : 384 Kbps\nChannel(s) : 6 channels\nChannel positions : Front: L C R, Side: L R, LFE\nSampling rate : 48.0 KHz\nBit depth : 16 bits\nCompression mode : Lossy\nStream size : 119 MiB (18%)\nAlignment : Split accross interleaves\nInterleave, duration : 42 ms (1.00 video frame)\nInterleave, preload duration : 500 ms\n\n\n\n\n\n\n\nBrick\n\nAs Charming Heights begins to seem like a reality SAMCRO asks for help from a former enemy and Juice has to deal with the Sheriff hounding him for more club information.\n\n\n\n\n\n\n\n\n\n\n\n\n\n\n\n\n\n\n\n\n\n\n\n\n\n\n\nSource Used\n\n\nSons of Anarchy S04E05 720p HDTV x264-ORENJI....Thanks\n\n\nEnjoy\n","torrent":{"xt":"urn:btih:087318875404ff84dad98a28e484aa95a2a44a6d","amp;dn":"Sons+Of+Anarchy+S04E05+HDTV+XViD+AC3+DTRG","amp;tr":["udp%3A%2F%2Ftracker.openbittorrent.com%3A80","udp%3A%2F%2Fopen.demonii.com%3A1337","udp%3A%2F%2Ftracker.coppersurfer.tk%3A6969","udp%3A%2F%2Fexodus.desync.com%3A6969"],"infoHash":"087318875404ff84dad98a28e484aa95a2a44a6d","infoHashBuffer":{"type":"Buffer","data":[8,115,24,135,84,4,255,132,218,217,138,40,228,132,170,149,162,164,74,109]},"announce":[],"urlList":[]}}